<?xml version="1.0" standalone="no"?><!DOCTYPE svg PUBLIC "-//W3C//DTD SVG 1.1//EN" "http://www.w3.org/Graphics/SVG/1.1/DTD/svg11.dtd"><svg t="1555583790134" class="icon" style="" viewBox="0 0 1024 1024" version="1.1" xmlns="http://www.w3.org/2000/svg" p-id="981" xmlns:xlink="http://www.w3.org/1999/xlink" width="200" height="200"><defs><style type="text/css"></style></defs><path d="M952 512c0 243.2-196.8 440-440 440S72 755.2 72 512 268.8 72 512 72c52 0 102.4 8.8 148.8 25.6C830.4 158.4 952 320.8 952 512z" fill="#FFFFFF" p-id="982"></path><path d="M943.2 423.2C912 272 803.2 148.8 660.8 97.6c-0.8 0-1.6-0.8-1.6-0.8l1.6 84.8c0 21.6-12.8 41.6-32.8 50.4-44 19.2-88 8.8-106.4 59.2-15.2 37.6 24.8 140.8 73.6 140.8 61.6 0 91.2-124 109.6-124 12 0 30.4 37.6 52 65.6 14.4 19.2 36.8 29.6 60.8 29.6h40.8l84.8 20zM590.4 608C568 639.2 685.6 734.4 724.8 716c66.4-31.2 109.6-96 109.6-120s-31.2-70.4-137.6 1.6C667.2 619.2 613.6 576 590.4 608zM412 520.8c23.2-23.2 30.4-59.2 18.4-80-38.4-69.6-129.6-32.8-138.4 40-4.8 44-31.2 88.8-53.6 112-22.4 22.4-66.4 10.4-78.4-22.4-13.6-36.8 33.6-50.4 26.4-97.6-1.6-12.8-15.2-19.2-32-21.6l-79.2 3.2C73.6 472.8 72 492 72 512c0 210.4 147.2 386.4 344.8 429.6v-78.4l-20-20c-20-20 20.8-53.6 32-96 31.2-120-72.8-124.8-76-151.2-3.2-29.6 36-52 59.2-75.2z" fill="#ADF9D2" p-id="983"></path><path d="M512 976C256 976 48 768 48 512S256 48 512 48c53.6 0 106.4 8.8 156.8 27.2 184 65.6 307.2 241.6 307.2 436.8 0 256-208 464-464 464z m0-880c-229.6 0-416 186.4-416 416s186.4 416 416 416 416-186.4 416-416c0-175.2-110.4-332.8-275.2-392-45.6-16-92.8-24-140.8-24z" fill="#444B54" p-id="984"></path><path d="M416.8 887.2c-6.4 0-12-2.4-16.8-7.2l-20-20c-24.8-24.8-6.4-56 6.4-78.4 8-12.8 16-26.4 19.2-40.8 17.6-67.2-12.8-85.6-41.6-103.2-16-9.6-32-19.2-34.4-39.2-4-35.2 24.8-59.2 47.2-79.2 6.4-5.6 12.8-11.2 18.4-16 16.8-16.8 20-41.6 14.4-51.2-14.4-25.6-35.2-25.6-46.4-24-20 4-44 23.2-47.2 55.2-5.6 50.4-35.2 100.8-60.8 126.4-16 16-39.2 22.4-62.4 16.8-25.6-5.6-46.4-24-55.2-48-10.4-29.6 3.2-50.4 13.6-66.4 8.8-12.8 13.6-21.6 12-33.6-1.6-0.8-4.8-2.4-12.8-4-12.8-2.4-21.6-15.2-19.2-28 2.4-12.8 15.2-21.6 28-19.2 38.4 7.2 48.8 26.4 51.2 41.6 4.8 32.8-8.8 53.6-19.2 69.6-9.6 14.4-10.4 17.6-8 23.2 4 10.4 12.8 15.2 20.8 17.6 3.2 0.8 12 2.4 18.4-4 20-20 42.4-60.8 47.2-97.6 5.6-48 40.8-88 85.6-96.8 39.2-8 76.8 10.4 97.6 47.2 17.6 32 8 78.4-22.4 108.8-6.4 6.4-13.6 12.8-20.8 18.4-12.8 10.4-28 23.2-30.4 32.8 3.2 2.4 7.2 4.8 11.2 7.2 28.8 17.6 89.6 54.4 63.2 156.8-5.6 20-16 38.4-24 52.8-4 7.2-10.4 17.6-12 22.4l17.6 17.6c9.6 9.6 9.6 24.8 0 33.6-6.4 6.4-12 8.8-18.4 8.8z m-252.8-408zM713.6 742.4c-44.8 0-102.4-46.4-126.4-75.2-30.4-36-25.6-60-16-72.8 21.6-30.4 56.8-22.4 79.2-17.6 12.8 2.4 28 5.6 33.6 1.6 60-41.6 108-52.8 142.4-35.2 24 12.8 32.8 36.8 32.8 52.8 0 37.6-55.2 109.6-124 141.6-6.4 3.2-13.6 4.8-21.6 4.8zM612.8 620c4 10.4 22.4 32.8 52.8 53.6 27.2 18.4 45.6 21.6 49.6 20.8 59.2-28 95.2-84.8 96-98.4 0 0 0-6.4-7.2-10.4-12.8-6.4-43.2-1.6-92.8 32-22.4 15.2-48.8 9.6-70.4 5.6-12.8-2.4-23.2-4.8-28-3.2z m-2.4 1.6zM590.4 608zM595.2 456c-24.8 0-48-15.2-67.2-43.2-24.8-35.2-43.2-95.2-29.6-130.4 17.6-47.2 54.4-55.2 84-62.4 12-2.4 24-5.6 35.2-10.4 11.2-4.8 18.4-16 18.4-28 0-13.6 10.4-24 24-24s24 10.4 24 24c0 31.2-18.4 60-47.2 72-15.2 6.4-30.4 10.4-44 13.6-29.6 7.2-41.6 10.4-50.4 32.8-4.8 13.6 3.2 55.2 24 85.6 9.6 13.6 20 22.4 28 22.4 25.6 0 49.6-48 64-76 14.4-28.8 24-48 45.6-48 20.8 0 32.8 19.2 52 47.2 6.4 9.6 12.8 19.2 19.2 28 9.6 12.8 24.8 20 41.6 20h40.8c13.6 0 24 10.4 24 24s-10.4 24-24 24h-40.8c-32 0-61.6-14.4-80-39.2-7.2-9.6-14.4-20.8-20.8-30.4-2.4-4-5.6-8.8-8.8-13.6-1.6 3.2-3.2 7.2-4.8 9.6C681.6 394.4 650.4 456 595.2 456z" fill="#444B54" p-id="985"></path></svg>